<?xml version="1.0" encoding="UTF-8" standalone="no"?>
<svg
   xmlns:dc="http://purl.org/dc/elements/1.1/"
   xmlns:cc="http://creativecommons.org/ns#"
   xmlns:rdf="http://www.w3.org/1999/02/22-rdf-syntax-ns#"
   xmlns:svg="http://www.w3.org/2000/svg"
   xmlns="http://www.w3.org/2000/svg"
   xmlns:sodipodi="http://sodipodi.sourceforge.net/DTD/sodipodi-0.dtd"
   xmlns:inkscape="http://www.inkscape.org/namespaces/inkscape"
   version="1.0"
   width="200.55627"
   height="102.92647"
   viewBox="0 0 160.44502 82.341174"
   preserveAspectRatio="xMidYMid meet"
   id="svg2"
   inkscape:version="0.48.4 r9939"
   sodipodi:docname="logo.svg">
  <defs
     id="defs314">
    <clipPath
       clipPathUnits="userSpaceOnUse"
       id="clipPath4989">
      <rect
         style="fill:none"
         id="rect4991"
         width="156.35593"
         height="76.271187"
         x="5.9322033"
         y="53.813557" />
    </clipPath>
  </defs>
  <sodipodi:namedview
     pagecolor="#ffffff"
     bordercolor="#666666"
     borderopacity="1"
     objecttolerance="10"
     gridtolerance="10"
     guidetolerance="10"
     inkscape:pageopacity="0"
     inkscape:pageshadow="2"
     inkscape:window-width="1366"
     inkscape:window-height="721"
     id="namedview312"
     showgrid="false"
     inkscape:zoom="1.888"
     inkscape:cx="99.27595"
     inkscape:cy="-14.375596"
     inkscape:window-x="0"
     inkscape:window-y="25"
     inkscape:window-maximized="1"
     inkscape:current-layer="svg2"
     fit-margin-top="5"
     fit-margin-left="5"
     fit-margin-right="5"
     fit-margin-bottom="5" />
  <metadata
     id="metadata4">
Created by potrace 1.11, written by Peter Selinger 2001-2013
<rdf:RDF>
  <cc:Work
     rdf:about="">
    <dc:format>image/svg+xml</dc:format>
    <dc:type
       rdf:resource="http://purl.org/dc/dcmitype/StillImage" />
  </cc:Work>
</rdf:RDF>
</metadata>
  <g
     id="g4672"
     transform="translate(-3.3857078,-51.605396)"
     clip-path="url(#clipPath4989)">
    <path
       d="m 153.59341,56.635957 c 0.48775,1.965222 3.53626,2.60285 3.73335,0.813673 0.10949,-0.993987 -0.7194,-1.688925 -1.91218,-1.820318 -1.19279,-0.131393 -1.94333,0.288955 -1.82117,1.006645 z"
       id="path10"
       inkscape:connector-curvature="0"
       style="fill:#e2001a;fill-opacity:1;stroke:none" />
    <path
       d="m 145.63141,56.76494 c 0.12215,0.71769 0.85165,1.401678 1.54744,1.478324 0.69579,0.07665 1.55667,-0.432152 1.93152,-1.095094 0.27544,-0.673893 -0.3656,-1.247533 -1.65779,-1.389875 -1.29218,-0.142343 -2.04272,0.278005 -1.82117,1.006645 z"
       id="path12"
       inkscape:connector-curvature="0"
       style="fill:#e2001a;fill-opacity:1;stroke:none" />
    <path
       d="m 137.57002,56.882973 c 0.12215,0.71769 0.85164,1.401678 1.54743,1.478324 0.69579,0.07665 1.55668,-0.432151 1.93152,-1.095094 0.27545,-0.673892 -0.3656,-1.247532 -1.65778,-1.389875 -1.29218,-0.142342 -2.04272,0.278005 -1.82117,1.006645 z"
       id="path14"
       inkscape:connector-curvature="0"
       style="fill:#e2001a;fill-opacity:1;stroke:none" />
    <path
       d="m 129.16663,57.365753 c -0.0985,0.894589 0.5425,1.468228 1.55839,1.378925 2.53971,-0.223258 3.08974,-2.476581 0.70417,-2.739367 -1.19278,-0.131393 -2.15307,0.366455 -2.26256,1.360442 z"
       id="path16"
       inkscape:connector-curvature="0"
       style="fill:#e2001a;fill-opacity:1;stroke:none" />
    <path
       d="m 121.11619,57.384388 c -0.1095,0.993987 0.53155,1.567627 1.64683,1.489273 2.13117,-0.167657 2.12946,-1.978733 0.0859,-2.606266 -0.97209,-0.308292 -1.62323,0.123005 -1.73272,1.116993 z"
       id="path18"
       inkscape:connector-curvature="0"
       style="fill:#e2001a;fill-opacity:1;stroke:none" />
    <path
       d="m 113.05479,57.502421 c -0.10949,0.993987 0.53155,1.567627 1.64684,1.489273 2.13117,-0.167657 2.12946,-1.978733 0.0859,-2.606266 -0.97208,-0.308292 -1.62322,0.123006 -1.73272,1.116993 z"
       id="path20"
       inkscape:connector-curvature="0"
       style="fill:#e2001a;fill-opacity:1;stroke:none" />
    <path
       d="m 104.9934,57.620454 c -0.1095,0.993988 0.53155,1.567627 1.64683,1.489274 2.13117,-0.167657 2.12947,-1.978734 0.0859,-2.606267 -0.97209,-0.308291 -1.62323,0.123006 -1.73272,1.116993 z"
       id="path22"
       inkscape:connector-curvature="0"
       style="fill:#e2001a;fill-opacity:1;stroke:none" />
    <path
       d="m 96.932004,57.738488 c -0.109494,0.993987 0.53155,1.567627 1.646835,1.489273 2.131171,-0.167657 2.129461,-1.978733 0.08589,-2.606266 -0.972089,-0.308292 -1.623228,0.123005 -1.732723,1.116993 z"
       id="path24"
       inkscape:connector-curvature="0"
       style="fill:#e2001a;fill-opacity:1;stroke:none" />
    <path
       d="m 88.870611,57.856521 c -0.0876,0.79519 0.531549,1.567627 1.326739,1.655223 0.79519,0.0876 1.567627,-0.53155 1.655223,-1.32674 0.08759,-0.79519 -0.53155,-1.567627 -1.32674,-1.655223 -0.79519,-0.0876 -1.567627,0.53155 -1.655222,1.32674 z"
       id="path26"
       inkscape:connector-curvature="0"
       style="fill:#e2001a;fill-opacity:1;stroke:none" />
    <path
       d="m 154.41903,65.580136 c -0.14234,1.292184 0.27801,2.042722 1.10605,1.832121 0.61829,-0.133101 1.30228,-0.862594 1.37892,-1.558385 0.0767,-0.695792 -0.43215,-1.556678 -0.99569,-1.920571 -0.77329,-0.286393 -1.34693,0.354651 -1.48928,1.646835 z"
       id="path28"
       inkscape:connector-curvature="0"
       style="fill:#e2001a;fill-opacity:1;stroke:none" />
    <path
       d="m 80.809217,57.974554 c -0.0876,0.79519 0.53155,1.567628 1.32674,1.655223 0.79519,0.0876 1.567627,-0.53155 1.655222,-1.32674 0.0876,-0.79519 -0.53155,-1.567627 -1.32674,-1.655222 -0.79519,-0.0876 -1.567627,0.531549 -1.655222,1.326739 z"
       id="path30"
       inkscape:connector-curvature="0"
       style="fill:#e2001a;fill-opacity:1;stroke:none" />
    <path
       d="m 72.747823,58.092588 c -0.08759,0.79519 0.53155,1.567627 1.32674,1.655222 0.79519,0.0876 1.567627,-0.53155 1.655222,-1.326739 0.0876,-0.79519 -0.531549,-1.567628 -1.326739,-1.655223 -0.79519,-0.0876 -1.567627,0.53155 -1.655223,1.32674 z"
       id="path32"
       inkscape:connector-curvature="0"
       style="fill:#e2001a;fill-opacity:1;stroke:none" />
    <path
       d="m 64.68643,58.210621 c -0.0876,0.79519 0.531549,1.567627 1.326739,1.655223 0.79519,0.0876 1.567627,-0.53155 1.655223,-1.32674 0.0876,-0.79519 -0.53155,-1.567627 -1.32674,-1.655223 -0.79519,-0.0876 -1.567627,0.53155 -1.655222,1.32674 z"
       id="path34"
       inkscape:connector-curvature="0"
       style="fill:#e2001a;fill-opacity:1;stroke:none" />
    <path
       d="m 56.625036,58.328654 c -0.0876,0.79519 0.53155,1.567628 1.32674,1.655223 0.795189,0.0876 1.567627,-0.53155 1.655222,-1.32674 0.0876,-0.79519 -0.53155,-1.567627 -1.32674,-1.655222 -0.79519,-0.0876 -1.567627,0.531549 -1.655222,1.326739 z"
       id="path36"
       inkscape:connector-curvature="0"
       style="fill:#e2001a;fill-opacity:1;stroke:none" />
    <path
       d="m 141.68587,67.258263 c -0.1462,0.993987 2.87815,2.350159 5.39975,2.558199 0.929,0.07664 0.50048,-0.662943 -0.70972,-1.567628 -2.67121,-1.930666 -4.49998,-2.282755 -4.69003,-0.990571 z"
       id="path38"
       inkscape:connector-curvature="0"
       style="fill:#e2001a;fill-opacity:1;stroke:none" />
    <path
       d="m 48.563642,58.446688 c -0.0876,0.79519 0.53155,1.567627 1.32674,1.655222 0.79519,0.0876 1.567627,-0.53155 1.655222,-1.326739 0.0876,-0.79519 -0.531549,-1.567628 -1.326739,-1.655223 -0.79519,-0.0876 -1.567627,0.53155 -1.655223,1.32674 z"
       id="path40"
       inkscape:connector-curvature="0"
       style="fill:#e2001a;fill-opacity:1;stroke:none" />
    <path
       d="m 131.80879,66.67 c -1.31408,0.05646 -2.38472,0.642752 -2.45041,1.239144 -0.0547,0.496994 0.61914,0.772437 1.54658,0.572786 0.92743,-0.199651 2.25247,-0.355505 3.04766,-0.26791 0.79519,0.0876 1.44633,-0.343701 1.50107,-0.840695 0.0657,-0.596393 -0.19965,-0.927437 -0.59724,-0.971235 -0.50795,0.04465 -1.83298,0.200506 -3.04766,0.26791 z"
       id="path42"
       inkscape:connector-curvature="0"
       style="fill:#e2001a;fill-opacity:1;stroke:none" />
    <path
       d="m 138.8059,67.582627 c -1.42358,1.050443 -1.14472,3.998703 0.37996,4.770286 0.86174,0.396741 2.61807,0.892027 4.00965,1.045319 2.18678,0.240887 2.35273,0.560982 1.61485,2.693008 -0.55089,1.347784 -0.67134,2.44117 -0.27374,2.484968 0.89459,0.09855 3.68614,-2.410884 3.80658,-3.50427 0.1533,-1.391583 -2.94072,-3.442692 -5.72389,-3.749276 -1.59038,-0.175191 -1.93322,-0.715983 -1.37139,-2.163166 0.70503,-1.833829 -0.8862,-2.914558 -2.44202,-1.576869 z"
       id="path44"
       inkscape:connector-curvature="0"
       style="fill:#e2001a;fill-opacity:1;stroke:none" />
    <path
       d="m 40.302597,57.637284 c -1.004083,0.895443 -0.06399,2.407469 1.62579,2.593609 0.79519,0.0876 1.468228,-0.542499 1.555824,-1.337689 0.164241,-1.490981 -1.857436,-2.317312 -3.181614,-1.25592 z"
       id="path46"
       inkscape:connector-curvature="0"
       style="fill:#e2001a;fill-opacity:1;stroke:none" />
    <path
       d="m 127.61934,67.758823 c -0.52898,1.148988 -0.80186,4.539494 -0.7319,8.470792 0.0228,0.706741 0.6419,1.479178 1.30484,1.85402 1.04959,0.518039 1.25848,-0.464999 1.14387,-4.90424 -0.16013,-5.852723 -0.76918,-7.630097 -1.71681,-5.420572 z"
       id="path48"
       inkscape:connector-curvature="0"
       style="fill:#e2001a;fill-opacity:1;stroke:none" />
    <path
       d="m 32.241203,57.755318 c -1.004083,0.895442 -0.06399,2.407468 1.62579,2.593608 0.79519,0.0876 1.468229,-0.542499 1.555824,-1.337689 0.164241,-1.490981 -1.857436,-2.317311 -3.181614,-1.255919 z"
       id="path50"
       inkscape:connector-curvature="0"
       style="fill:#e2001a;fill-opacity:1;stroke:none" />
    <path
       d="m 117.15048,67.812868 c -0.89373,0.806993 -0.21984,1.082437 3.28102,1.266869 2.40746,0.06399 4.16294,-0.346263 3.91949,-0.876105 -0.65285,-1.379779 -5.84348,-1.750352 -7.20051,-0.390764 z"
       id="path52"
       inkscape:connector-curvature="0"
       style="fill:#e2001a;fill-opacity:1;stroke:none" />
    <path
       d="m 24.17981,57.873351 c -1.004083,0.895442 -0.06399,2.407469 1.625789,2.593609 0.79519,0.0876 1.468229,-0.542499 1.555824,-1.337689 0.164242,-1.490982 -1.857435,-2.317312 -3.181613,-1.25592 z"
       id="path54"
       inkscape:connector-curvature="0"
       style="fill:#e2001a;fill-opacity:1;stroke:none" />
    <path
       d="m 107.92915,67.501312 c -0.0547,0.496994 0.7851,1.092532 1.97788,1.223925 2.78317,0.306584 1.71509,3.609496 -1.31067,3.678608 -1.82202,0.101106 -2.17582,-0.340286 -1.94588,-2.42766 0.17519,-1.59038 -0.31171,-2.650064 -1.2063,-2.748609 -1.19278,-0.131393 -1.40167,0.851645 -1.40921,4.573196 0.0279,6.13997 0.29408,7.376552 1.58626,7.518895 0.497,0.05475 1.13633,-1.18269 1.31152,-2.773069 0.27374,-2.484969 0.60478,-2.750317 2.35016,-2.155632 1.14899,0.528988 2.23228,1.654368 2.31064,2.769653 0.1887,1.026836 0.99569,1.920571 1.79088,2.008166 0.99399,0.109494 1.25848,-0.464999 0.94763,-2.209525 -0.3656,-1.247532 -0.33446,-3.356804 -0.18117,-4.748387 0.25269,-1.380633 0.0412,-3.114209 -0.47851,-3.875697 -1.03949,-1.522975 -5.58994,-2.225446 -5.74323,-0.833864 z"
       id="path56"
       inkscape:connector-curvature="0"
       style="fill:#e2001a;fill-opacity:1;stroke:none" />
    <path
       d="m 16.118416,57.991384 c -1.004083,0.895443 -0.06399,2.407469 1.62579,2.593609 0.79519,0.0876 1.468228,-0.542499 1.555824,-1.337689 0.164241,-1.490981 -1.857436,-2.317312 -3.181614,-1.25592 z"
       id="path58"
       inkscape:connector-curvature="0"
       style="fill:#e2001a;fill-opacity:1;stroke:none" />
    <path
       d="m 97.860364,66.871959 c -1.015886,0.0893 -1.887722,0.697499 -1.953419,1.293891 -0.05475,0.496994 0.619145,0.772438 1.546582,0.572786 0.927437,-0.199651 2.252465,-0.355505 3.047653,-0.267909 0.79519,0.0876 1.44633,-0.343702 1.50108,-0.840696 0.1095,-0.993987 -1.07234,-1.224779 -4.141896,-0.758072 z"
       id="path60"
       inkscape:connector-curvature="0"
       style="fill:#e2001a;fill-opacity:1;stroke:none" />
    <path
       d="m 154.48232,74.138523 c -0.0876,0.79519 0.53155,1.567627 1.32674,1.655223 0.79519,0.0876 1.56763,-0.53155 1.65522,-1.32674 0.0876,-0.79519 -0.53155,-1.567627 -1.32674,-1.655222 -0.79519,-0.0876 -1.56762,0.531549 -1.65522,1.326739 z"
       id="path62"
       inkscape:connector-curvature="0"
       style="fill:#e2001a;fill-opacity:1;stroke:none" />
    <path
       d="m 8.0570222,58.109418 c -1.0040829,0.895442 -0.063989,2.407468 1.6257899,2.593608 0.7951899,0.0876 1.4682279,-0.542499 1.5558239,-1.337689 0.164241,-1.490981 -1.8574358,-2.317311 -3.1816138,-1.255919 z"
       id="path64"
       inkscape:connector-curvature="0"
       style="fill:#e2001a;fill-opacity:1;stroke:none" />
    <path
       d="m 94.490131,68.033013 c -1.543167,3.049367 -1.393139,9.907026 0.197241,10.082217 1.093386,0.120444 1.773104,-5.13674 0.985448,-8.945887 -0.299904,-1.843924 -0.66465,-2.185918 -1.182689,-1.13633 z"
       id="path66"
       inkscape:connector-curvature="0"
       style="fill:#e2001a;fill-opacity:1;stroke:none" />
    <path
       d="m 119.48643,73.31597 c -0.13893,5.609334 2.0605,7.838036 2.56418,2.61906 0.40512,-4.19787 -0.21573,-7.146751 -1.50791,-7.309223 -0.497,-0.06249 -1.00323,2.05568 -1.05627,4.690163 z"
       id="path68"
       inkscape:connector-curvature="0"
       style="fill:#e2001a;fill-opacity:1;stroke:none" />
    <path
       d="m 130.00955,72.168334 c -0.46329,0.552595 0.3875,1.048734 1.77908,1.202026 1.39158,0.153292 2.63911,-0.212308 2.69386,-0.709302 0.0657,-0.596392 -0.78509,-1.092532 -1.77908,-1.202026 -1.09339,-0.120444 -2.32997,0.145758 -2.69386,0.709302 z"
       id="path70"
       inkscape:connector-curvature="0"
       style="fill:#e2001a;fill-opacity:1;stroke:none" />
    <path
       d="m 88.644187,68.45763 c -0.39367,0.464146 -1.289976,3.192564 -1.976757,6.042279 -1.078546,5.124937 -1.078546,5.124937 0.82779,2.395665 2.754743,-4.154556 4.486288,-9.114398 3.044995,-9.25674 -0.554344,-0.05475 -1.490144,0.255252 -1.896028,0.818796 z"
       id="path72"
       inkscape:connector-curvature="0"
       style="fill:#e2001a;fill-opacity:1;stroke:none" />
    <path
       d="m 76.305284,71.462497 c -0.262786,2.38557 -0.867566,5.135886 -1.264307,5.997627 -0.639336,1.237436 -0.373988,1.568481 1.050442,1.423576 2.23057,-0.156707 3.265794,-3.161422 2.808328,-8.141455 -0.358067,-4.969083 -2.025092,-4.448483 -2.594463,0.720252 z"
       id="path74"
       inkscape:connector-curvature="0"
       style="fill:#e2001a;fill-opacity:1;stroke:none" />
    <path
       d="m 81.131991,68.023923 c -0.03285,0.298196 0.97465,3.024906 2.346895,6.09361 1.770694,4.018039 2.478289,4.900825 2.65348,3.310445 0.339432,-3.081361 -2.063065,-9.583515 -3.653444,-9.758706 -0.695792,-0.07665 -1.314083,0.05645 -1.346931,0.354651 z"
       id="path76"
       inkscape:connector-curvature="0"
       style="fill:#e2001a;fill-opacity:1;stroke:none" />
    <path
       d="m 34.820599,64.478168 c -0.05475,0.496994 0.586297,1.070634 1.381486,1.158229 0.79519,0.08759 1.545729,-0.332752 1.600476,-0.829746 0.0657,-0.596393 -0.586297,-1.070634 -1.381487,-1.158229 -0.79519,-0.08759 -1.534779,0.233354 -1.600475,0.829746 z"
       id="path78"
       inkscape:connector-curvature="0"
       style="fill:#e2001a;fill-opacity:1;stroke:none" />
    <path
       d="m 69.275989,71.590626 c -0.407234,2.981962 0.07422,4.936235 1.403647,6.161014 2.549197,2.33921 3.658254,2.437755 3.916168,0.549179 0.108602,-0.79519 -0.289297,-1.534779 -1.028669,-1.600475 -0.616143,-0.05475 -1.096542,-1.103482 -0.920074,-2.395666 0.447957,-3.280158 -0.446027,-6.780159 -1.678313,-6.889653 -0.616144,-0.05475 -1.380548,1.88943 -1.692759,4.175601 z"
       id="path80"
       inkscape:connector-curvature="0"
       style="fill:#e2001a;fill-opacity:1;stroke:none" />
    <path
       d="m 138.14534,76.362565 c -0.1581,0.894589 1.17229,1.589526 3.08685,1.720919 2.87182,0.19709 3.06652,0.0092 1.69954,-1.392436 -0.97622,-0.871836 -2.28911,-1.666172 -3.08685,-1.720919 -0.79772,-0.05475 -1.55893,0.597246 -1.69954,1.392436 z"
       id="path82"
       inkscape:connector-curvature="0"
       style="fill:#e2001a;fill-opacity:1;stroke:none" />
    <path
       d="m 58.103511,68.652613 c -3.420793,2.741928 -2.033329,10.238924 2.04202,10.68785 1.789177,0.19709 1.589526,-0.730347 -0.919904,-3.521899 l -2.233131,-2.559907 2.27266,-2.365379 c 1.246678,-1.271139 2.294558,-2.564176 2.327407,-2.862372 0.120443,-1.093387 -1.82288,-0.804432 -3.489052,0.621707 z"
       id="path84"
       inkscape:connector-curvature="0"
       style="fill:#e2001a;fill-opacity:1;stroke:none" />
    <path
       d="m 62.597499,68.041001 c -0.120443,1.093386 3.405726,4.701174 4.067815,4.170478 1.335128,-1.160791 -1.156521,3.192563 -2.844592,4.817499 -2.239811,2.067182 -1.421869,2.861518 1.469937,1.268577 2.891805,-1.592942 3.583326,-6.043986 1.350195,-8.603893 -1.613987,-1.78747 -3.922911,-2.746047 -4.043355,-1.652661 z"
       id="path86"
       inkscape:connector-curvature="0"
       style="fill:#e2001a;fill-opacity:1;stroke:none" />
    <path
       d="m 96.664052,72.636905 c -0.463291,0.552595 0.3875,1.048735 1.779082,1.202027 1.391582,0.153292 2.639116,-0.212309 2.693866,-0.709303 0.0657,-0.596392 -0.78509,-1.092532 -1.779084,-1.202026 -1.093388,-0.120444 -2.329971,0.145758 -2.693864,0.709302 z"
       id="path88"
       inkscape:connector-curvature="0"
       style="fill:#e2001a;fill-opacity:1;stroke:none" />
    <path
       d="m 49.53332,67.909759 c -0.142342,1.292184 1.93579,3.432597 3.426771,3.596838 0.695791,0.07665 1.247532,-0.3656 1.12538,-1.08329 -0.354651,-1.346931 -4.431707,-3.606934 -4.552151,-2.513548 z"
       id="path90"
       inkscape:connector-curvature="0"
       style="fill:#e2001a;fill-opacity:1;stroke:none" />
    <path
       d="m 131.20552,76.988278 c -2.47317,0.532403 -2.37377,0.543353 0.69664,0.982184 1.97703,0.318387 3.11421,0.04124 2.78231,-0.598954 -0.2325,-0.629241 -0.5863,-1.070634 -0.69664,-0.982184 -0.11035,0.08845 -1.34693,0.354651 -2.78231,0.598954 z"
       id="path92"
       inkscape:connector-curvature="0"
       style="fill:#e2001a;fill-opacity:1;stroke:none" />
    <path
       d="m 44.377243,69.052067 c -3.254844,3.062024 -1.735987,9.366234 2.339362,9.815161 1.987975,0.218988 1.998924,0.11959 -0.245157,-2.340918 -1.901234,-1.919717 -2.189334,-2.957502 -1.296453,-4.670034 0.628386,-1.138037 1.533071,-2.044429 2.129463,-1.978733 0.496994,0.05475 1.048735,-0.387499 1.103482,-0.884493 0.164241,-1.490981 -2.452974,-1.47747 -4.030697,0.05902 z"
       id="path94"
       inkscape:connector-curvature="0"
       style="fill:#e2001a;fill-opacity:1;stroke:none" />
    <path
       d="m 32.349995,67.727186 c -0.0657,0.596393 -0.395887,1.767279 -0.704179,2.739367 -0.297342,0.87269 -0.164241,1.490981 0.365601,1.247532 0.430443,-0.254398 0.464999,1.258482 -0.06314,3.313007 -0.726078,2.938165 -0.625825,3.854652 0.56696,3.986045 1.292183,0.142343 1.600475,-0.829746 1.552408,-4.959841 -0.0043,-4.527691 -1.234172,-8.888578 -1.717655,-6.32611 z"
       id="path96"
       inkscape:connector-curvature="0"
       style="fill:#e2001a;fill-opacity:1;stroke:none" />
    <path
       d="m 35.376609,68.563612 c -0.142343,1.292184 2.83962,1.620667 4.969937,0.547471 1.170032,-0.575347 0.805286,-0.917341 -1.580284,-1.180127 -1.789178,-0.19709 -3.323956,0.03626 -3.389653,0.632656 z"
       id="path98"
       inkscape:connector-curvature="0"
       style="fill:#e2001a;fill-opacity:1;stroke:none" />
    <path
       d="m 155.38374,81.481373 c -0.43044,0.254399 -0.82718,1.116139 -0.91478,1.911329 -0.16424,1.490981 2.38728,2.073862 3.33576,0.769875 0.81623,-1.01674 -1.42785,-3.477248 -2.42098,-2.681204 z"
       id="path100"
       inkscape:connector-curvature="0"
       style="fill:#e2001a;fill-opacity:1;stroke:none" />
    <path
       d="m 23.339266,68.243668 c -0.05475,0.496994 0.785094,1.092533 1.779081,1.202027 2.087374,0.229938 2.873322,2.228008 2.468194,5.905762 -0.164242,1.490981 -0.859179,2.319873 -1.753768,2.221328 -0.79519,-0.08759 -1.534779,0.233354 -1.600475,0.829746 -0.164242,1.490981 3.446961,1.586964 5.024684,0.05048 1.456425,-1.348639 1.263454,-6.903165 -0.174488,-9.375476 -1.039493,-1.522976 -5.589937,-2.225447 -5.743228,-0.833865 z"
       id="path102"
       inkscape:connector-curvature="0"
       style="fill:#e2001a;fill-opacity:1;stroke:none" />
    <path
       d="m 140.22792,81.66817 c 0.24345,0.529842 1.38148,1.158229 2.37547,1.267723 0.99399,0.109495 2.24152,-0.256106 2.59446,-0.720251 0.46329,-0.552595 -0.58629,-1.070634 -2.37547,-1.267724 -1.78918,-0.197089 -2.92636,0.08006 -2.59446,0.720252 z"
       id="path104"
       inkscape:connector-curvature="0"
       style="fill:#0a9d8d;fill-opacity:1;stroke:none" />
    <path
       d="m 7.6022698,67.717393 c 0.1221515,0.71769 0.8516449,1.401678 1.5474361,1.478324 0.6957912,0.07665 1.5566781,-0.432151 1.9315201,-1.095094 0.275443,-0.673892 -0.365601,-1.247532 -1.6577845,-1.389874 -1.2921836,-0.142343 -2.042722,0.278005 -1.8211717,1.006644 z"
       id="path106"
       inkscape:connector-curvature="0"
       style="fill:#e2001a;fill-opacity:1;stroke:none" />
    <path
       d="m 20.03977,70.797749 c -0.470825,4.274146 0.09699,9.165729 1.090976,9.275224 0.993987,0.109494 2.068739,-7.820507 1.436936,-10.304621 -0.709302,-2.693862 -2.18848,-2.051964 -2.527912,1.029397 z"
       id="path108"
       inkscape:connector-curvature="0"
       style="fill:#e2001a;fill-opacity:1;stroke:none" />
    <path
       d="m 98.283752,76.539758 -2.572564,0.829175 2.772216,0.645562 c 1.480035,0.41922 2.727566,-0.16213 2.782316,-0.952409 0.0657,-0.948337 0.0101,-1.597971 -0.10026,-1.457327 -0.20974,0.123235 -1.446331,0.546528 -2.881708,0.934999 z"
       id="path110"
       inkscape:connector-curvature="0"
       style="fill:#e2001a;fill-opacity:1;stroke:none" />
    <path
       d="m 138.26697,81.607945 c -0.43045,0.254399 -0.24175,1.281235 0.36645,2.153071 0.85164,1.401678 0.7413,1.490127 -0.27544,0.673892 -1.02769,-0.716836 -1.25934,-0.440539 -0.97038,1.502784 0.25525,1.335982 0.37825,2.95921 0.31256,3.555602 -0.0767,0.695792 0.4431,1.457279 1.10604,1.832122 0.95019,0.507089 1.25848,-0.465 1.17757,-4.296899 -0.13737,-5.145982 -0.50297,-6.393514 -1.7168,-5.420572 z"
       id="path112"
       inkscape:connector-curvature="0"
       style="fill:#0a9d8d;fill-opacity:1;stroke:none" />
    <path
       d="m 124.67465,83.531229 c 0.11206,1.722627 0.11462,4.439241 -0.0606,6.029621 -0.21899,1.987975 0.17946,2.937311 1.27285,3.057755 1.39158,0.153292 1.56762,-0.53155 1.41006,-3.667658 -0.0792,-2.020824 -0.0818,-4.737438 0.0606,-6.029622 0.1533,-1.391582 -0.3555,-2.252468 -1.34949,-2.361963 -1.29218,-0.142342 -1.56763,0.53155 -1.33342,2.971867 z"
       id="path114"
       inkscape:connector-curvature="0"
       style="fill:#0a9d8d;fill-opacity:1;stroke:none" />
    <path
       d="m 128.49389,81.738636 c -0.0547,0.496994 0.7076,0.882785 1.61314,0.881932 0.99398,0.109494 1.81193,0.90383 1.91218,1.820317 0.0565,1.314083 -0.49529,1.756329 -1.88687,1.603037 -1.19278,-0.131393 -2.13117,0.167658 -2.19687,0.76405 -0.0547,0.496994 0.7851,1.092532 1.77909,1.202027 1.09338,0.120443 2.18762,1.146425 2.36537,2.272659 0.59896,2.782311 3.18333,3.066996 2.78317,0.306584 -0.17775,-1.126234 -0.74215,-2.395665 -1.2063,-2.748608 -0.46414,-0.352944 -0.2662,-1.236583 0.51719,-1.955127 2.03006,-1.989683 0.77997,-4.340696 -2.59959,-4.712977 -1.59038,-0.175191 -3.02576,0.06911 -3.08051,0.566106 z"
       id="path116"
       inkscape:connector-curvature="0"
       style="fill:#0a9d8d;fill-opacity:1;stroke:none" />
    <path
       d="m 36.926607,72.75855 c -2.473165,0.532404 -2.373767,0.543353 0.696645,0.982184 1.977025,0.318388 3.114209,0.04124 2.782311,-0.598954 -0.2325,-0.62924 -0.586297,-1.070633 -0.696645,-0.982184 -0.110349,0.08845 -1.346931,0.354651 -2.782311,0.598954 z"
       id="path118"
       inkscape:connector-curvature="0"
       style="fill:#e2001a;fill-opacity:1;stroke:none" />
    <path
       d="m 119.37709,86.871258 c -0.65697,5.963925 0.0515,7.752248 1.84819,4.227787 1.41092,-2.76212 1.29374,-9.917976 -0.0978,-10.071268 -0.69579,-0.07665 -1.32333,1.96693 -1.75035,5.843481 z"
       id="path120"
       inkscape:connector-curvature="0"
       style="fill:#0a9d8d;fill-opacity:1;stroke:none" />
    <path
       d="m 104.24231,80.878052 c -1.61228,0.02361 -2.88171,0.588005 -2.93646,1.084999 -0.12044,1.093386 1.46994,1.268577 5.93108,0.955162 2.24152,-0.256107 2.88171,-0.588005 1.95342,-1.293892 -0.64105,-0.57364 -1.40339,-0.959431 -1.71253,-0.892881 -0.2982,-0.03285 -1.72263,0.112056 -3.23551,0.146612 z"
       id="path122"
       inkscape:connector-curvature="0"
       style="fill:#0a9d8d;fill-opacity:1;stroke:none" />
    <path
       d="m 112.50677,85.309608 c 0.26962,4.858736 1.24341,6.978103 3.43019,7.218991 1.19278,0.131393 1.22563,-0.166803 0.14148,-2.197722 -0.76319,-1.29133 -1.18525,-3.852944 -0.98816,-5.642122 0.25184,-2.286171 -0.13566,-3.334905 -1.22905,-3.455349 -1.29218,-0.142342 -1.56762,0.53155 -1.35446,4.076202 z"
       id="path124"
       inkscape:connector-curvature="0"
       style="fill:#0a9d8d;fill-opacity:1;stroke:none" />
    <path
       d="m 50.657144,76.886787 c -0.783386,0.718544 -1.279526,1.569335 -1.014178,1.900379 0.696645,0.982184 3.765349,-0.390061 3.918641,-1.781643 0.19709,-1.789178 -0.907246,-1.810223 -2.904463,-0.118736 z"
       id="path126"
       inkscape:connector-curvature="0"
       style="fill:#e2001a;fill-opacity:1;stroke:none" />
    <path
       d="m 140.32725,86.243422 c -0.13139,1.192785 0.6638,1.280381 3.47895,0.38323 1.87678,-0.5981 1.78833,-0.708448 -0.59724,-0.971234 -1.57943,-0.27459 -2.81602,-0.0084 -2.88171,0.588004 z"
       id="path128"
       inkscape:connector-curvature="0"
       style="fill:#0a9d8d;fill-opacity:1;stroke:none" />
    <path
       d="m 89.083222,84.238424 c -3.392917,8.881898 -3.414816,9.080696 -1.74779,8.560095 1.026836,-0.188702 2.151362,-2.177531 2.855541,-4.916898 1.056269,-4.10905 1.276965,-4.285949 2.372059,-2.354429 1.017594,1.721773 0.874398,2.108418 -0.737027,3.037563 -1.622375,1.028544 -1.633324,1.127943 0.354651,1.346931 1.093386,0.120444 2.408323,0.969527 2.718322,1.808515 0.409398,0.849937 1.271139,1.246678 1.911329,0.914779 1.699874,-0.818796 -2.849013,-11.581585 -4.936386,-11.811523 -0.79519,-0.0876 -1.964369,1.39329 -2.790699,3.414967 z"
       id="path130"
       inkscape:connector-curvature="0"
       style="fill:#0a9d8d;fill-opacity:1;stroke:none" />
    <path
       d="m 81.419423,84.400255 c 0.167657,2.131171 0.700061,4.604336 1.208858,5.465223 0.508797,0.860886 -0.320095,0.165949 -1.845632,-1.511172 -3.570821,-4.115731 -4.960696,-2.457946 -1.400824,1.757183 2.222182,2.659305 2.796676,2.923799 3.723259,1.81861 0.683988,-0.729494 1.025128,-1.999778 0.803577,-2.728418 -0.2106,-0.828038 -0.17946,-2.937311 0.02858,-4.825887 0.273736,-2.484968 -0.02531,-3.423355 -1.218099,-3.554748 -1.292184,-0.142342 -1.567627,0.53155 -1.299718,3.579209 z"
       id="path132"
       inkscape:connector-curvature="0"
       style="fill:#0a9d8d;fill-opacity:1;stroke:none" />
    <path
       d="m 73.522271,83.027307 c -0.04294,1.303133 0.02446,2.517817 0.19041,2.837912 0.06655,0.309146 -0.11959,1.998924 -0.405129,3.677754 -0.373134,2.474019 -0.06314,3.313006 1.12965,3.444399 1.292184,0.142343 1.556678,-0.432151 1.355319,-3.170664 -0.211455,-1.733576 -0.699207,-3.698798 -1.130504,-4.349938 -1.227341,-1.644273 -0.676454,-2.992058 0.572785,-1.546582 0.729494,0.683988 1.602184,0.98133 1.944178,0.616584 0.982184,-0.696646 -0.831454,-3.411552 -2.421834,-3.586743 -0.695791,-0.07665 -1.202881,0.873544 -1.234875,2.077278 z"
       id="path134"
       inkscape:connector-curvature="0"
       style="fill:#0a9d8d;fill-opacity:1;stroke:none" />
    <path
       d="m 103.89363,85.869888 c -0.31753,2.882564 0.50298,6.393514 1.39756,6.492059 0.497,0.05475 1.09168,-1.690632 1.33257,-3.877405 0.31753,-2.882563 0.0404,-4.019747 -1.053,-4.140191 -0.79519,-0.0876 -1.57858,0.630949 -1.67713,1.525537 z"
       id="path136"
       inkscape:connector-curvature="0"
       style="fill:#0a9d8d;fill-opacity:1;stroke:none" />
    <path
       d="m 155.05029,90.901501 c -1.18013,1.580284 0.898,3.720697 2.44287,2.482407 1.32418,-1.061392 0.75893,-3.236361 -0.73205,-3.400602 -0.49699,-0.05475 -1.24753,0.3656 -1.71082,0.918195 z"
       id="path138"
       inkscape:connector-curvature="0"
       style="fill:#e2001a;fill-opacity:1;stroke:none" />
    <path
       d="m 7.8306513,75.690338 c -1.1801277,1.580284 0.8980043,3.720697 2.4428787,2.482407 1.324178,-1.061392 0.758926,-3.236361 -0.7320551,-3.400603 -0.4969938,-0.05475 -1.2475321,0.365601 -1.7108236,0.918196 z"
       id="path140"
       inkscape:connector-curvature="0"
       style="fill:#e2001a;fill-opacity:1;stroke:none" />
    <path
       d="m 35.772647,78.667728 c 0.24345,0.529842 1.381487,1.158229 2.375475,1.267723 0.993987,0.109494 2.241519,-0.256106 2.594463,-0.720252 0.463291,-0.552595 -0.586297,-1.070633 -2.375475,-1.267723 -1.789177,-0.19709 -2.926361,0.08006 -2.594463,0.720252 z"
       id="path142"
       inkscape:connector-curvature="0"
       style="fill:#e2001a;fill-opacity:1;stroke:none" />
    <path
       d="m 56.827552,85.715494 c -0.892027,2.61807 -2.004751,5.413038 -2.522789,6.462626 -0.650286,1.336836 -0.484337,1.656931 0.542499,1.468229 1.954273,-0.388354 6.570261,-12.153669 4.880483,-12.33981 -0.695792,-0.07665 -2.019116,1.890284 -2.900193,4.408955 z"
       id="path144"
       inkscape:connector-curvature="0"
       style="fill:#0a9d8d;fill-opacity:1;stroke:none" />
    <path
       d="m 140.22208,91.077979 c 0.24345,0.529842 1.58028,1.180128 2.97187,1.33342 1.29218,0.142342 2.44031,-0.234208 2.49506,-0.731202 0.0657,-0.596392 -1.28209,-1.147279 -2.97187,-1.333419 -1.68978,-0.18614 -2.82696,0.09101 -2.49506,0.731201 z"
       id="path146"
       inkscape:connector-curvature="0"
       style="fill:#0a9d8d;fill-opacity:1;stroke:none" />
    <path
       d="m 51.457458,82.407611 c -0.352944,0.464145 -0.296489,1.778228 0.10196,2.727564 0.730348,1.589526 0.840696,1.501076 1.004083,-0.895443 0.03029,-3.014811 -0.04721,-3.224558 -1.106043,-1.832121 z"
       id="path148"
       inkscape:connector-curvature="0"
       style="fill:#0a9d8d;fill-opacity:1;stroke:none" />
    <path
       d="m 54.573375,84.259923 c 0.04551,1.413481 0.322657,2.550665 0.521454,2.572564 0.198798,0.0219 0.518039,-1.049588 0.671331,-2.441171 0.153292,-1.391582 -0.123859,-2.528766 -0.620853,-2.583513 -0.397595,-0.0438 -0.716836,1.027689 -0.571932,2.45212 z"
       id="path150"
       inkscape:connector-curvature="0"
       style="fill:#0a9d8d;fill-opacity:1;stroke:none" />
    <path
       d="m 41.24214,81.986561 c -3.212754,0.853352 -1.833678,11.166361 1.54588,11.538641 1.192785,0.131394 1.378925,-1.558385 0.262786,-2.385569 -1.10519,-0.926583 -1.265313,-6.779306 -0.10623,-7.255255 1.059684,-0.486898 1.356172,-2.265126 0.351236,-2.275221 -0.496994,-0.05475 -1.424431,0.144904 -2.053672,0.377404 z"
       id="path152"
       inkscape:connector-curvature="0"
       style="fill:#0a9d8d;fill-opacity:1;stroke:none" />
    <path
       d="m 44.897995,82.590487 c -0.05475,0.496994 0.354651,1.346931 0.907246,1.810222 0.651993,0.474241 0.653701,2.285317 0.103668,4.53864 -0.715128,2.838766 -0.526426,3.865602 0.368162,3.964146 3.18076,0.350382 3.502412,-9.875885 0.387348,-10.822659 -0.872689,-0.297342 -1.700728,-0.08674 -1.766424,0.509651 z"
       id="path154"
       inkscape:connector-curvature="0"
       style="fill:#0a9d8d;fill-opacity:1;stroke:none" />
    <path
       d="m 29.437296,82.295858 c -1.611424,0.929144 -1.919716,1.901233 -1.706554,5.445886 0.145758,2.329968 0.79946,4.615285 1.561801,5.001077 1.999779,1.025128 2.926362,-0.08006 1.63247,-2.03348 -0.696645,-0.982184 -0.764903,-3.102406 -0.09357,-5.543577 0.539084,-2.153924 0.835572,-3.932152 0.736174,-3.943102 -0.0994,-0.01095 -1.059684,0.486899 -2.130318,1.073196 z"
       id="path156"
       inkscape:connector-curvature="0"
       style="fill:#0a9d8d;fill-opacity:1;stroke:none" />
    <path
       d="m 32.860651,82.270543 c -0.0657,0.596393 0.354651,1.346931 0.907246,1.810222 0.651994,0.474241 0.631803,2.484115 0.04892,5.035634 -1.000667,4.517595 -0.392471,5.389431 1.968638,3.1344 1.688071,-1.624935 1.626493,-8.372247 -0.13069,-9.773071 -1.580285,-1.180127 -2.673671,-1.300571 -2.794115,-0.207185 z"
       id="path158"
       inkscape:connector-curvature="0"
       style="fill:#0a9d8d;fill-opacity:1;stroke:none" />
    <path
       d="m 22.756536,82.666582 c -0.492725,4.472943 0.230943,10.689558 1.324329,10.810002 0.894589,0.09855 1.246678,-1.271139 1.320762,-4.683544 -0.01351,-2.617216 -0.01607,-5.33383 -0.138224,-6.05152 -0.421202,-1.656077 -2.320727,-1.764717 -2.506867,-0.07494 z"
       id="path160"
       inkscape:connector-curvature="0"
       style="fill:#0a9d8d;fill-opacity:1;stroke:none" />
    <path
       d="m 137.37509,95.108656 c -0.0961,0.620558 1.89139,1.09034 4.23374,1.169203 2.48773,0.09025 4.45795,-0.278765 4.52202,-0.692471 0.0641,-0.413705 -1.76201,-0.975519 -4.23374,-1.169202 -2.32631,-0.182288 -4.44193,0.175339 -4.52202,0.69247 z"
       id="path162"
       inkscape:connector-curvature="0"
       style="fill:#0a9d8d;fill-opacity:1;stroke:none" />
    <path
       d="m 20.21682,82.88984 c -0.352943,0.464145 -0.230792,1.181835 0.321803,1.645127 0.464145,0.352943 1.004937,0.0101 1.092532,-0.785095 0.19709,-1.789177 -0.366454,-2.15307 -1.414335,-0.860032 z"
       id="path164"
       inkscape:connector-curvature="0"
       style="fill:#0a9d8d;fill-opacity:1;stroke:none" />
    <path
       d="m 129.74329,95.055506 c -0.3858,0.762342 -1.21127,3.689557 -1.827,6.539274 -0.86842,4.23035 -0.75722,5.04744 0.49031,4.68183 0.82804,-0.2106 1.86497,-1.40424 2.30551,-2.66357 1.00237,-2.70652 0.1776,-10.74516 -0.96882,-8.557534 z"
       id="path166"
       inkscape:connector-curvature="0"
       style="fill:#0a9d8d;fill-opacity:1;stroke:none" />
    <path
       d="m 133.1254,98.144401 c 0.0683,2.120219 0.0708,4.836839 -0.0606,6.029619 -0.16424,1.49098 0.34456,2.35187 1.33854,2.46136 1.29219,0.14235 1.56763,-0.53155 1.33342,-2.97186 -0.11205,-1.72263 -0.11461,-4.439244 0.0606,-6.029624 0.21899,-1.987975 -0.17946,-2.937311 -1.27285,-3.057754 -1.39158,-0.153292 -1.56763,0.531549 -1.39912,3.568259 z"
       id="path168"
       inkscape:connector-curvature="0"
       style="fill:#0a9d8d;fill-opacity:1;stroke:none" />
    <path
       d="m 59.260335,89.202838 c -0.120444,1.093386 0.05731,2.21962 0.532404,2.473165 0.364746,0.341994 0.761487,-0.519746 0.90383,-1.81193 0.142342,-1.292184 -0.03541,-2.418418 -0.433005,-2.462216 -0.496994,-0.05475 -0.893735,0.806993 -1.003229,1.800981 z"
       id="path170"
       inkscape:connector-curvature="0"
       style="fill:#0a9d8d;fill-opacity:1;stroke:none" />
    <path
       d="m 62.662645,90.281859 c -0.142343,1.292184 0.03541,2.418418 0.532404,2.473165 0.397595,0.0438 0.794336,-0.817942 0.90383,-1.81193 0.120444,-1.093386 -0.05731,-2.219621 -0.433005,-2.462216 -0.464145,-0.352943 -0.860887,0.508797 -1.003229,1.800981 z"
       id="path172"
       inkscape:connector-curvature="0"
       style="fill:#0a9d8d;fill-opacity:1;stroke:none" />
    <path
       d="m 121.53116,99.281736 c 0.10367,4.538644 1.24342,6.978104 3.51864,7.329334 0.99398,0.1095 1.09168,-1.69063 0.064,-2.40746 -0.46415,-0.35295 -0.9081,-2.71576 -0.93256,-5.233581 -0.27133,-6.669812 -2.71165,-6.435604 -2.65007,0.311707 z"
       id="path174"
       inkscape:connector-curvature="0"
       style="fill:#0a9d8d;fill-opacity:1;stroke:none" />
    <path
       d="m 111.61062,95.271382 c -1.61142,0.929144 -1.12538,1.08329 3.17067,1.355318 2.70566,0.09684 5.04658,-0.14832 5.09038,-0.545915 0.14234,-1.292183 -6.32953,-1.904497 -8.26105,-0.809403 z"
       id="path176"
       inkscape:connector-curvature="0"
       style="fill:#0a9d8d;fill-opacity:1;stroke:none" />
    <path
       d="m 141.08825,98.169969 c 0.19965,1.018904 0.27886,3.239031 0.10367,4.986261 -0.21899,2.18403 0.17946,3.227 1.27285,3.35932 1.19278,0.14435 1.55668,-0.47477 1.24582,-2.39135 -0.1668,-1.34651 -0.24601,-3.56663 -0.10367,-4.986258 0.14235,-1.419624 -0.3555,-2.474617 -1.34949,-2.59491 -1.09338,-0.132322 -1.44633,0.377599 -1.16918,1.626937 z"
       id="path178"
       inkscape:connector-curvature="0"
       style="fill:#0a9d8d;fill-opacity:1;stroke:none" />
    <path
       d="m 155.41177,99.492737 c -1.00409,0.895443 -0.064,2.407473 1.62579,2.593613 0.79519,0.0876 1.46823,-0.5425 1.55582,-1.33769 0.16424,-1.490985 -1.85743,-2.317315 -3.18161,-1.255923 z"
       id="path180"
       inkscape:connector-curvature="0"
       style="fill:#e2001a;fill-opacity:1;stroke:none" />
    <path
       d="M 7.3977977,85.099516 C 7.2883034,86.093504 7.9293475,86.667143 9.0446325,86.58879 11.175804,86.421133 11.174096,84.610056 9.1305201,83.982523 8.1584315,83.674232 7.507292,84.105529 7.3977977,85.099516 z"
       id="path182"
       inkscape:connector-curvature="0"
       style="fill:#e2001a;fill-opacity:1;stroke:none" />
    <path
       d="m 98.396569,100.15387 c -1.035224,3.00472 -1.640004,5.75504 -1.474055,6.07513 1.072342,1.22478 2.583514,-0.62085 3.595986,-4.33231 0.64943,-2.242371 1.50946,-3.656706 1.97361,-3.303763 1.20459,0.937533 0.90895,3.621303 -0.38323,3.478953 -0.497,-0.0547 -1.03779,0.2881 -1.10348,0.8845 -0.0547,0.49699 0.78509,1.09253 1.87848,1.21297 1.09338,0.12045 1.94417,0.61659 1.87848,1.21298 -0.0547,0.49699 0.78509,1.09253 1.87848,1.21297 1.88857,0.20804 1.92142,-0.0901 -0.31427,-5.36667 -3.37544,-7.715988 -5.55126,-8.056274 -7.930001,-1.07476 z"
       id="path184"
       inkscape:connector-curvature="0"
       style="fill:#0a9d8d;fill-opacity:1;stroke:none" />
    <path
       d="m 85.504165,94.810101 c -0.993134,0.796044 -1.551554,5.865379 -1.095797,9.034339 0.577909,3.88664 2.100885,2.84715 2.50516,-1.73614 0.525572,-4.771141 -0.195533,-8.271142 -1.409363,-7.298199 z"
       id="path186"
       inkscape:connector-curvature="0"
       style="fill:#0a9d8d;fill-opacity:1;stroke:none" />
    <path
       d="m 87.757488,95.360134 c -0.0657,0.596392 0.774145,1.191931 1.768132,1.301425 2.882564,0.317533 3.193417,2.062059 0.732055,3.400601 l -2.240665,1.16165 2.021677,0.82633 c 1.060537,0.41864 1.856581,1.41177 1.758037,2.30636 -0.09855,0.89459 0.5206,1.66702 1.415189,1.76557 1.192784,0.13139 1.446329,-0.3437 1.091678,-1.69063 -0.29905,-0.93839 -0.433859,-3.36776 -0.325219,-5.267283 0.250983,-3.191709 -0.01436,-3.522754 -2.86408,-4.138483 -1.866677,-0.406837 -3.291108,-0.261933 -3.356804,0.33446 z"
       id="path188"
       inkscape:connector-curvature="0"
       style="fill:#0a9d8d;fill-opacity:1;stroke:none" />
    <path
       d="m 113.70956,100.42325 c 0.0647,2.42388 0.0419,4.61871 0.10467,5.06486 -0.0618,0.54272 0.46231,0.92814 1.13576,0.99989 1.68363,0.17935 1.81192,-8.92562 0.0779,-9.659664 -1.19757,-0.457165 -1.52097,0.38729 -1.31832,3.594914 z"
       id="path190"
       inkscape:connector-curvature="0"
       style="fill:#0a9d8d;fill-opacity:1;stroke:none" />
    <path
       d="m 72.08875,96.954081 c -2.173261,2.376328 -2.656744,4.938799 -0.857471,4.130949 0.739589,-0.32095 0.828038,-0.2106 0.342848,0.54079 -1.05883,1.39244 0.64446,4.19579 2.731833,4.42573 1.292184,0.14234 1.314083,-0.0565 0.09769,-1.80013 -1.658638,-2.29541 -1.562655,-5.906611 0.03782,-6.736357 0.62924,-0.2325 1.103481,-0.884493 1.169178,-1.480886 0.175191,-1.590379 -1.679683,-1.191077 -3.5219,0.919904 z"
       id="path192"
       inkscape:connector-curvature="0"
       style="fill:#0a9d8d;fill-opacity:1;stroke:none" />
    <path
       d="m 77.785391,96.959053 c 0.608195,0.871836 1.724334,1.69902 2.519524,1.786615 1.292184,0.142343 1.325032,-0.155853 0.462438,-1.458133 -0.608196,-0.871835 -1.724335,-1.69902 -2.519525,-1.786615 -1.292183,-0.142343 -1.325032,0.155853 -0.462437,1.458133 z"
       id="path194"
       inkscape:connector-curvature="0"
       style="fill:#0a9d8d;fill-opacity:1;stroke:none" />
    <path
       d="m 55.195233,99.620369 c -0.991425,2.607121 -2.00475,5.413041 -2.401491,6.274781 -0.528988,1.14898 -0.27459,1.57943 0.652847,1.37978 2.075571,-0.57621 6.338616,-11.877376 4.648837,-12.063516 -0.695791,-0.07665 -2.019115,1.890284 -2.900193,4.408955 z"
       id="path196"
       inkscape:connector-curvature="0"
       style="fill:#0a9d8d;fill-opacity:1;stroke:none" />
    <path
       d="m 49.329,97.163276 c -0.120444,1.093387 0.156707,2.23057 0.620853,2.583514 0.464145,0.35294 0.849937,-0.409399 0.90383,-1.81193 0.218135,-2.893513 -1.218099,-3.554748 -1.524683,-0.771584 z"
       id="path198"
       inkscape:connector-curvature="0"
       style="fill:#0a9d8d;fill-opacity:1;stroke:none" />
    <path
       d="m 52.742259,98.142899 c -0.153292,1.391582 0.02446,2.517821 0.521454,2.572561 0.397595,0.0438 0.816235,-1.016737 0.969527,-2.40832 0.153292,-1.391582 -0.02446,-2.517817 -0.422055,-2.561614 -0.496994,-0.05475 -0.915634,1.00579 -1.068926,2.397373 z"
       id="path200"
       inkscape:connector-curvature="0"
       style="fill:#0a9d8d;fill-opacity:1;stroke:none" />
    <path
       d="m 156.41344,107.75207 c -1.32418,1.0614 -0.95772,3.21447 0.53326,3.37871 0.79519,0.0876 1.55668,-0.43215 1.64427,-1.22734 0.18614,-1.68978 -1.085,-2.93646 -2.17753,-2.15137 z"
       id="path202"
       inkscape:connector-curvature="0"
       style="fill:#e2001a;fill-opacity:1;stroke:none" />
    <path
       d="m 39.544125,96.487828 c -1.677121,1.525537 -1.250796,8.614842 0.461735,9.507722 1.90038,1.01418 2.826963,-0.091 1.533071,-2.04443 -0.696645,-0.98218 -0.676454,-2.99206 -0.14832,-5.046582 0.990572,-3.512658 0.293927,-4.494842 -1.846486,-2.41671 z"
       id="path204"
       inkscape:connector-curvature="0"
       style="fill:#0a9d8d;fill-opacity:1;stroke:none" />
    <path
       d="m 44.293366,97.212198 c 0.685696,1.081582 0.764903,3.102402 0.08262,5.642972 -0.769875,3.33576 -0.736173,3.9431 0.688258,3.7982 1.921424,-0.0902 3.187439,-4.27671 2.708929,-8.152404 -0.222404,-1.634178 -1.128796,-2.538862 -2.42098,-2.681205 -1.789177,-0.197089 -1.910475,-0.0092 -1.05883,1.392437 z"
       id="path206"
       inkscape:connector-curvature="0"
       style="fill:#0a9d8d;fill-opacity:1;stroke:none" />
    <path
       d="m 7.4063368,94.154897 c -0.1094943,0.993988 0.5315498,1.567627 1.6468348,1.489274 2.1311714,-0.167657 2.1294634,-1.978734 0.085888,-2.606266 C 8.166971,92.729613 7.5158315,93.16091 7.4063372,94.154897 z"
       id="path208"
       inkscape:connector-curvature="0"
       style="fill:#e2001a;fill-opacity:1;stroke:none" />
    <path
       d="m 28.390421,96.365827 c -1.688071,1.624936 -1.372948,7.897153 0.428887,9.805923 1.713385,1.79842 2.949114,0.62668 1.566773,-1.43709 -0.696645,-0.98219 -0.764903,-3.10241 -0.09357,-5.543578 0.95687,-4.12 0.348674,-4.991836 -1.902087,-2.825255 z"
       id="path210"
       inkscape:connector-curvature="0"
       style="fill:#0a9d8d;fill-opacity:1;stroke:none" />
    <path
       d="m 32.321719,96.295861 c -0.0657,0.596393 0.354651,1.346931 0.907246,1.810223 0.563544,0.363892 0.631802,2.484116 0.203067,4.549586 -0.637628,3.04852 -0.427028,3.87655 0.787656,3.80915 1.932374,-0.18956 3.130985,-5.59079 1.957537,-8.637595 -0.874398,-2.108419 -3.669366,-3.221142 -3.855506,-1.531364 z"
       id="path212"
       inkscape:connector-curvature="0"
       style="fill:#0a9d8d;fill-opacity:1;stroke:none" />
    <path
       d="m 78.299901,101.38207 c -1.314082,0.0565 -2.384716,0.64275 -2.439463,1.13975 -0.0657,0.59639 0.420348,0.75054 1.060538,0.41864 0.838988,-0.31 0.894589,0.0985 0.233354,1.53478 -1.079875,2.49677 0.300758,2.74946 2.750316,0.60478 1.897818,-1.70244 2.756997,-4.02231 1.442914,-3.96586 -0.507943,0.0447 -1.832975,0.20051 -3.047659,0.26791 z"
       id="path214"
       inkscape:connector-curvature="0"
       style="fill:#0a9d8d;fill-opacity:1;stroke:none" />
    <path
       d="m 22.949659,100.0925 c 0.10196,2.72757 0.20392,5.45513 0.138224,6.05152 -0.09684,2.70567 1.95598,1.42272 2.262564,-1.36044 0.514623,-4.67174 -0.196387,-9.176679 -1.48857,-9.319021 -0.894589,-0.09854 -1.13633,1.182689 -0.912218,4.627941 z"
       id="path216"
       inkscape:connector-curvature="0"
       style="fill:#0a9d8d;fill-opacity:1;stroke:none" />
    <path
       d="m 19.804606,97.676646 c -0.352288,1.093386 0.423832,1.42443 1.552241,0.662089 1.096381,-0.662943 1.093883,-1.568481 0.317763,-1.899526 -0.744093,-0.430443 -1.808449,0.133101 -1.870004,1.237437 z"
       id="path218"
       inkscape:connector-curvature="0"
       style="fill:#0a9d8d;fill-opacity:1;stroke:none" />
    <path
       d="m 141.25692,113.82906 c -0.44978,3.16981 -0.20548,4.60519 0.84411,5.12323 1.13803,0.62839 1.46908,0.36304 1.10348,-0.88449 -0.2106,-0.82804 -0.25696,-3.14706 -0.0489,-5.03564 0.55842,-5.06933 -1.24086,-4.26149 -1.89867,0.7969 z"
       id="path220"
       inkscape:connector-curvature="0"
       style="fill:#e2001a;fill-opacity:1;stroke:none" />
    <path
       d="m 143.50794,111.17003 c 1.47804,0.68149 3.83489,1.03282 5.05041,0.75286 1.06573,-0.53286 -0.0755,-1.16416 -2.93753,-1.59078 -2.69355,-0.40151 -3.74072,-0.0965 -2.11288,0.83792 z"
       id="path222"
       inkscape:connector-curvature="0"
       style="fill:#e2001a;fill-opacity:1;stroke:none" />
    <path
       d="m 57.661719,103.71505 c -0.153292,1.39159 0.02446,2.51782 0.521454,2.57257 0.397595,0.0438 0.816235,-1.01674 0.969527,-2.40832 0.153292,-1.39159 -0.02446,-2.51782 -0.422056,-2.56162 -0.496993,-0.0547 -0.915633,1.00579 -1.068925,2.39737 z"
       id="path224"
       inkscape:connector-curvature="0"
       style="fill:#0a9d8d;fill-opacity:1;stroke:none" />
    <path
       d="m 61.041276,104.08733 c -0.153292,1.39159 0.123859,2.52877 0.620853,2.58352 0.993987,0.10949 1.310667,-3.67861 0.282977,-4.39545 -0.464145,-0.35294 -0.849937,0.4094 -0.90383,1.81193 z"
       id="path226"
       inkscape:connector-curvature="0"
       style="fill:#0a9d8d;fill-opacity:1;stroke:none" />
    <path
       d="m 133.95786,114.33288 c 0.003,2.71662 0.56782,4.89159 1.33016,5.27738 0.96114,0.40769 1.20373,0.032 1.00323,-1.80098 -0.25525,-1.33598 -0.30161,-3.655 -0.12642,-5.24538 0.16424,-1.49098 -0.30076,-2.74946 -0.99655,-2.82611 -0.99399,-0.10949 -1.22478,1.07234 -1.21042,4.59509 z"
       id="path228"
       inkscape:connector-curvature="0"
       style="fill:#e2001a;fill-opacity:1;stroke:none" />
    <path
       d="m 123.33059,110.34528 c -0.0547,0.497 0.77414,1.19193 1.83468,1.61057 2.31987,0.85918 2.18094,5.77352 -0.19282,6.31687 -0.83899,0.31 -1.60048,0.82975 -1.64427,1.22734 -0.12045,1.09339 4.28509,0.37143 5.32202,-0.82221 1.04788,-1.29304 0.55671,-6.88041 -0.73632,-7.92829 -1.37054,-1.25763 -4.46285,-1.49766 -4.58329,-0.40428 z"
       id="path230"
       inkscape:connector-curvature="0"
       style="fill:#e2001a;fill-opacity:1;stroke:none" />
    <path
       d="m 120.20628,111.30898 c -0.37228,3.37956 0.42803,8.90039 1.12382,8.97703 0.99399,0.1095 1.84976,-5.83253 1.21795,-8.31664 -0.48775,-1.96523 -2.15563,-2.35016 -2.34177,-0.66039 z"
       id="path232"
       inkscape:connector-curvature="0"
       style="fill:#e2001a;fill-opacity:1;stroke:none" />
    <path
       d="m 107.16315,110.07341 c -1.11443,0.98389 -0.65355,9.58607 0.53923,9.71747 0.89459,0.0985 1.23573,-1.17174 1.18852,-4.3963 -0.003,-3.62215 0.29392,-4.49484 1.58611,-4.3525 2.38557,0.26279 2.93987,2.53715 0.90895,3.6213 -1.62237,1.02854 -1.63332,1.12794 0.20051,1.83297 1.06053,0.41864 1.85658,1.41178 1.75803,2.30637 -0.0985,0.89458 0.22241,1.63417 0.7194,1.68892 0.49699,0.0547 1.00323,-1.80098 1.06722,-4.20845 0.053,-2.30807 0.0951,-4.51674 0.14988,-5.01373 -0.0228,-0.70674 -7.24602,-1.80425 -8.11785,-1.19605 z"
       id="path234"
       inkscape:connector-curvature="0"
       style="fill:#e2001a;fill-opacity:1;stroke:none" />
    <path
       d="m 143.76302,115.22738 c 1.37122,0.73635 3.55773,1.11599 4.6854,0.81349 0.98869,-0.57577 -0.0702,-1.25791 -2.72522,-1.71888 -2.49888,-0.43385 -3.47036,-0.10426 -1.96018,0.90539 z"
       id="path236"
       inkscape:connector-curvature="0"
       style="fill:#e2001a;fill-opacity:1;stroke:none" />
    <path
       d="m 155.92584,117.65825 c 0.16766,2.13117 1.93494,2.52705 2.57342,0.38408 0.30829,-0.97209 -0.11206,-1.72263 -1.10605,-1.83212 -0.99398,-0.1095 -1.55667,0.43215 -1.46737,1.44804 z"
       id="path238"
       inkscape:connector-curvature="0"
       style="fill:#e2001a;fill-opacity:1;stroke:none" />
    <path
       d="m 8.3077567,101.49775 c -1.4235767,1.05044 -1.0571222,3.20351 0.4338589,3.36775 0.79519,0.0876 1.5895264,-0.73035 1.7099694,-1.82373 0.218989,-1.98798 -0.8087008,-2.70481 -2.1438283,-1.54402 z"
       id="path240"
       inkscape:connector-curvature="0"
       style="fill:#e2001a;fill-opacity:1;stroke:none" />
    <path
       d="m 93.859788,113.94001 c -1.917155,4.61785 -2.081396,6.10883 -0.789213,6.25117 0.596393,0.0657 1.059684,-0.48689 1.13633,-1.18268 0.153292,-1.39159 2.450413,-1.23915 5.290033,0.38152 2.552372,1.48842 2.639972,0.69323 0.470825,-4.27415 -2.511991,-5.50817 -4.290219,-5.80465 -6.107975,-1.17586 z m 3.778006,1.32162 c -0.08759,0.79519 -0.550887,1.34778 -1.147279,1.28209 -0.496994,-0.0547 -0.895443,-1.00409 -0.76405,-2.19687 0.120444,-1.09339 0.683134,-1.63503 1.14728,-1.28209 0.563544,0.36389 0.851644,1.40168 0.764049,2.19687 z"
       id="path242"
       inkscape:connector-curvature="0"
       style="fill:#e2001a;fill-opacity:1;stroke:none" />
    <path
       d="m 81.97585,110.93545 c -0.141643,0.99399 3.517555,2.71405 4.516787,2.09491 0.414079,-0.16595 -0.515437,-0.94934 -1.830703,-1.76557 -1.458013,-0.72779 -2.601098,-0.92573 -2.686084,-0.32934 z"
       id="path244"
       inkscape:connector-curvature="0"
       style="fill:#e2001a;fill-opacity:1;stroke:none" />
    <path
       d="m 77.86754,112.07776 c -1.908767,1.80183 -0.932409,6.63781 1.597211,7.41949 1.645981,0.58374 1.65693,0.48434 0.240887,-2.18677 -1.316644,-2.66016 -1.283796,-2.95836 0.603073,-4.56139 1.677121,-1.52554 1.809368,-1.81279 0.517184,-1.95513 -0.894588,-0.0985 -2.164019,0.46585 -2.958355,1.2838 z"
       id="path246"
       inkscape:connector-curvature="0"
       style="fill:#e2001a;fill-opacity:1;stroke:none" />
    <path
       d="m 143.57808,118.92697 c -0.0816,0.497 1.16908,1.09254 2.79721,1.21298 1.62814,0.12044 3.04177,-0.278 3.1233,-0.775 0.0978,-0.59639 -1.16906,-1.09253 -2.79721,-1.21297 -1.62814,-0.12045 -3.02547,0.1786 -3.1233,0.77499 z"
       id="path248"
       inkscape:connector-curvature="0"
       style="fill:#e2001a;fill-opacity:1;stroke:none" />
    <path
       d="m 69.864309,115.32095 c 0.08177,4.73744 0.52487,6.19472 1.528953,5.29927 0.993133,-0.79604 0.377252,-9.81772 -0.716134,-9.93816 -0.596392,-0.0657 -0.892881,1.71253 -0.812819,4.63889 z"
       id="path250"
       inkscape:connector-curvature="0"
       style="fill:#e2001a;fill-opacity:1;stroke:none" />
    <path
       d="m 56.178423,111.70066 c 0.199651,0.92743 0.25696,3.14705 0.04892,5.03563 -0.240887,2.18677 0.124713,3.4343 1.019302,3.53285 0.993987,0.10949 1.313228,-0.96199 1.287914,-4.38535 -0.0034,-3.62215 0.293927,-4.49484 1.58611,-4.3525 2.484969,0.27374 2.939873,2.53716 0.798606,3.70975 -2.57171,1.42699 -1.952565,2.19943 1.149841,1.43453 1.556678,-0.43216 2.372913,-1.4489 2.559053,-3.13867 0.251837,-2.28618 -0.02446,-2.51782 -4.298607,-2.98865 -3.777152,-0.41608 -4.505791,-0.19452 -4.15114,1.15241 z"
       id="path252"
       inkscape:connector-curvature="0"
       style="fill:#e2001a;fill-opacity:1;stroke:none" />
    <path
       d="m 40.267134,113.0865 c -0.182584,1.51421 0.24914,3.49893 0.925255,4.38434 0.565617,0.8743 0.147965,0.62793 -1.166801,-0.5261 -3.010668,-2.85729 -4.507068,-1.57747 -1.741742,1.45947 2.949806,3.36202 4.814221,1.81271 4.464856,-3.63757 -0.201401,-4.82235 -1.958164,-6.02087 -2.481568,-1.68014 z"
       id="path254"
       inkscape:connector-curvature="0"
       style="fill:#e2001a;fill-opacity:1;stroke:none" />
    <path
       d="m 33.617141,112.63673 c -0.09165,0.91691 0.767525,1.94926 1.956046,2.09355 1.413136,0.30413 1.940915,-0.16209 1.596429,-1.52969 -0.596305,-2.45877 -3.316813,-2.92164 -3.552475,-0.56386 z"
       id="path256"
       inkscape:connector-curvature="0"
       style="fill:#e2001a;fill-opacity:1;stroke:none" />
    <path
       d="m 156.08767,125.32204 c 0.48775,1.96523 3.53627,2.60286 3.73336,0.81368 0.10949,-0.99399 -0.7194,-1.68893 -1.91219,-1.82032 -1.19278,-0.13139 -1.94332,0.28895 -1.82117,1.00664 z"
       id="path258"
       inkscape:connector-curvature="0"
       style="fill:#e2001a;fill-opacity:1;stroke:none" />
    <path
       d="m 21.568323,110.80567 c -1.080729,1.59123 -1.650099,6.75997 -0.831302,8.45984 1.217245,2.64921 2.032626,0.72693 1.795857,-4.43 -0.201359,-2.73851 -0.600662,-4.59339 -0.964555,-4.02984 z"
       id="path260"
       inkscape:connector-curvature="0"
       style="fill:#e2001a;fill-opacity:1;stroke:none" />
    <path
       d="m 22.555245,111.44482 c -0.160083,1.29904 0.808738,1.39445 4.238594,0.41737 2.286569,-0.65138 2.178807,-0.77157 -0.727657,-1.05777 -1.924302,-0.29905 -3.430895,-0.009 -3.510937,0.6404 z"
       id="path262"
       inkscape:connector-curvature="0"
       style="fill:#e2001a;fill-opacity:1;stroke:none" />
    <path
       d="m 81.900275,118.2564 c -0.85499,0.5526 -1.179875,1.23744 -0.690184,1.56848 1.142613,0.77244 5.07404,-0.30076 5.316521,-1.49354 0.242481,-1.19279 -2.875948,-1.37893 -4.626337,-0.0749 z"
       id="path264"
       inkscape:connector-curvature="0"
       style="fill:#e2001a;fill-opacity:1;stroke:none" />
    <path
       d="m 147.79463,125.71638 c -0.10949,0.99398 0.53155,1.56762 1.64684,1.48927 2.13117,-0.16766 2.12946,-1.97873 0.0859,-2.60627 -0.97209,-0.30829 -1.62322,0.12301 -1.73272,1.117 z"
       id="path266"
       inkscape:connector-curvature="0"
       style="fill:#e2001a;fill-opacity:1;stroke:none" />
    <path
       d="m 7.7207573,111.39297 c 0.167657,2.13117 1.9349355,2.52706 2.5734177,0.38408 0.308292,-0.97208 -0.112056,-1.72262 -1.1060432,-1.83212 -0.9939875,-0.10949 -1.5566777,0.43215 -1.4673745,1.44804 z"
       id="path268"
       inkscape:connector-curvature="0"
       style="fill:#e2001a;fill-opacity:1;stroke:none" />
    <path
       d="m 139.73324,125.83441 c -0.1095,0.99399 0.53155,1.56763 1.64683,1.48927 2.13117,-0.16765 2.12947,-1.97873 0.0859,-2.60626 -0.97209,-0.3083 -1.62323,0.123 -1.73272,1.11699 z"
       id="path270"
       inkscape:connector-curvature="0"
       style="fill:#e2001a;fill-opacity:1;stroke:none" />
    <path
       d="m 131.85969,126.07374 c 0.16766,2.13117 1.93494,2.52706 2.57342,0.38408 0.30829,-0.97209 -0.11206,-1.72262 -1.10604,-1.83212 -0.99399,-0.10949 -1.55668,0.43215 -1.46738,1.44804 z"
       id="path272"
       inkscape:connector-curvature="0"
       style="fill:#e2001a;fill-opacity:1;stroke:none" />
    <path
       d="m 33.390094,116.73574 c 0.255252,1.33598 0.400156,2.76041 0.356359,3.15801 -0.05475,0.49699 0.409398,0.84993 1.00579,0.91563 1.490981,0.16424 1.176712,-5.20244 -0.35892,-5.87462 -0.95019,-0.50709 -1.203735,-0.032 -1.003229,1.80098 z"
       id="path274"
       inkscape:connector-curvature="0"
       style="fill:#e2001a;fill-opacity:1;stroke:none" />
    <path
       d="m 123.7983,126.19177 c 0.16766,2.13117 1.93493,2.52706 2.57342,0.38409 0.30829,-0.97209 -0.11206,-1.72263 -1.10605,-1.83212 -0.99398,-0.1095 -1.55668,0.43215 -1.46737,1.44803 z"
       id="path276"
       inkscape:connector-curvature="0"
       style="fill:#e2001a;fill-opacity:1;stroke:none" />
    <path
       d="m 22.962304,115.61804 c -0.186473,1.29219 1.245892,1.41263 3.906446,0.32849 1.677332,-0.6638 1.575805,-0.87355 -0.768064,-1.07064 -1.692792,-0.14234 -3.052318,0.14576 -3.138382,0.74215 z"
       id="path278"
       inkscape:connector-curvature="0"
       style="fill:#e2001a;fill-opacity:1;stroke:none" />
    <path
       d="m 114.99646,125.72522 c -0.82718,1.11614 1.15155,3.2456 2.53133,2.59275 0.43044,-0.2544 0.92658,-1.10519 1.01418,-1.90038 0.18614,-1.68978 -2.37633,-2.17326 -3.54551,-0.69237 z"
       id="path280"
       inkscape:connector-curvature="0"
       style="fill:#e2001a;fill-opacity:1;stroke:none" />
    <path
       d="m 106.93507,125.84325 c -1.18013,1.58029 0.898,3.7207 2.44288,2.48241 1.32417,-1.06139 0.75892,-3.23636 -0.73206,-3.4006 -0.49699,-0.0547 -1.24753,0.3656 -1.71082,0.91819 z"
       id="path282"
       inkscape:connector-curvature="0"
       style="fill:#e2001a;fill-opacity:1;stroke:none" />
    <path
       d="m 98.873674,125.96128 c -1.180128,1.58029 0.898004,3.7207 2.442876,2.48241 1.32418,-1.06139 0.75893,-3.23636 -0.73205,-3.4006 -0.497,-0.0548 -1.247534,0.3656 -1.710826,0.91819 z"
       id="path284"
       inkscape:connector-curvature="0"
       style="fill:#e2001a;fill-opacity:1;stroke:none" />
    <path
       d="m 90.547786,126.65381 c 0.223258,2.53972 2.476581,3.08975 2.739368,0.70418 0.131393,-1.19279 -0.366455,-2.15307 -1.360442,-2.26256 -0.894589,-0.0985 -1.468229,0.54249 -1.378926,1.55838 z"
       id="path286"
       inkscape:connector-curvature="0"
       style="fill:#e2001a;fill-opacity:1;stroke:none" />
    <path
       d="m 24.979969,119.53047 -3.193872,0.66652 3.441741,0.51892 c 1.837479,0.33698 3.386306,-0.13032 3.454275,-0.76558 0.08157,-0.7623 0.01254,-1.28449 -0.124465,-1.17143 -0.260404,0.0991 -1.795636,0.43931 -3.577679,0.75157 z"
       id="path288"
       inkscape:connector-curvature="0"
       style="fill:#e2001a;fill-opacity:1;stroke:none" />
    <path
       d="m 82.254747,127.04814 c -0.120444,1.09339 0.476803,2.06462 1.271993,2.15222 0.79519,0.0876 1.589526,-0.73035 1.709969,-1.82374 0.120444,-1.09338 -0.476802,-2.06462 -1.271992,-2.15221 -0.79519,-0.0876 -1.589526,0.73035 -1.70997,1.82373 z"
       id="path290"
       inkscape:connector-curvature="0"
       style="fill:#e2001a;fill-opacity:1;stroke:none" />
    <path
       d="m 73.927151,125.92959 c -0.242595,0.3757 -0.25269,1.38064 0.156708,2.23057 0.575348,1.17003 1.061392,1.32418 2.054525,0.52814 0.662089,-0.5307 0.970381,-1.50279 0.737881,-2.13203 -0.652847,-1.37978 -2.132879,-1.64342 -2.949114,-0.62668 z"
       id="path292"
       inkscape:connector-curvature="0"
       style="fill:#e2001a;fill-opacity:1;stroke:none" />
    <path
       d="m 7.5414483,120.32705 c -0.087595,0.79519 0.5315498,1.56763 1.3267398,1.65523 0.7951899,0.0876 1.5676269,-0.53155 1.6552229,-1.32674 0.0876,-0.79519 -0.5315502,-1.56763 -1.3267401,-1.65523 -0.79519,-0.0876 -1.5676272,0.53155 -1.6552226,1.32674 z"
       id="path294"
       inkscape:connector-curvature="0"
       style="fill:#e2001a;fill-opacity:1;stroke:none" />
    <path
       d="m 65.634112,126.32392 c -1.180128,1.58029 0.898004,3.7207 2.442879,2.48241 1.324178,-1.06139 0.758926,-3.23636 -0.732055,-3.4006 -0.496994,-0.0547 -1.247533,0.3656 -1.710824,0.91819 z"
       id="path296"
       inkscape:connector-curvature="0"
       style="fill:#e2001a;fill-opacity:1;stroke:none" />
    <path
       d="m 57.572718,126.44196 c -1.180127,1.58028 0.898005,3.72069 2.442879,2.4824 1.324178,-1.06139 0.758926,-3.23636 -0.732055,-3.4006 -0.496994,-0.0547 -1.247532,0.3656 -1.710824,0.9182 z"
       id="path298"
       inkscape:connector-curvature="0"
       style="fill:#e2001a;fill-opacity:1;stroke:none" />
    <path
       d="m 49.864268,126.09584 c -1.544874,1.23829 -1.079021,3.40231 0.743004,3.30121 0.916488,-0.10025 1.799273,-0.80785 1.875919,-1.50364 0.175191,-1.59038 -1.515441,-2.68206 -2.618923,-1.79757 z"
       id="path300"
       inkscape:connector-curvature="0"
       style="fill:#e2001a;fill-opacity:1;stroke:none" />
    <path
       d="m 41.692526,126.30233 c -1.324178,1.06139 -0.957723,3.21446 0.533258,3.3787 0.79519,0.0876 1.556677,-0.43215 1.644273,-1.22734 0.18614,-1.68978 -1.084999,-2.93646 -2.177531,-2.15136 z"
       id="path302"
       inkscape:connector-curvature="0"
       style="fill:#e2001a;fill-opacity:1;stroke:none" />
    <path
       d="m 33.631132,126.42036 c -1.324178,1.06139 -0.957723,3.21446 0.533258,3.3787 0.79519,0.0876 1.556678,-0.43215 1.644273,-1.22734 0.18614,-1.68978 -1.084998,-2.93645 -2.177531,-2.15136 z"
       id="path304"
       inkscape:connector-curvature="0"
       style="fill:#e2001a;fill-opacity:1;stroke:none" />
    <path
       d="m 24.996099,127.17944 c -1.346077,1.26019 -0.781679,2.52962 1.305695,2.75956 1.490981,0.16424 2.073862,-2.38728 0.769875,-3.33576 -0.464145,-0.35295 -1.391582,-0.1533 -2.07557,0.5762 z"
       id="path306"
       inkscape:connector-curvature="0"
       style="fill:#e2001a;fill-opacity:1;stroke:none" />
    <path
       d="m 15.952521,127.99412 c 0.487752,1.96522 3.536265,2.60285 3.733355,0.81367 0.109494,-0.99399 -0.719398,-1.68893 -1.912183,-1.82032 -1.192785,-0.13139 -1.943323,0.28896 -1.821172,1.00665 z"
       id="path308"
       inkscape:connector-curvature="0"
       style="fill:#e2001a;fill-opacity:1;stroke:none" />
    <path
       d="m 7.6485322,128.48785 c -0.098545,0.89458 0.5424993,1.46822 1.5583856,1.37892 2.5397152,-0.22326 3.0897482,-2.47658 0.7041789,-2.73937 -1.192785,-0.13139 -2.1530702,0.36646 -2.2625645,1.36045 z"
       id="path310"
       inkscape:connector-curvature="0"
       style="fill:#e2001a;fill-opacity:1;stroke:none" />
  </g>
</svg>
